<svg width="211" height="210" viewBox="0 0 211 210" fill="none" xmlns="http://www.w3.org/2000/svg">
<rect x="1" width="210" height="210" rx="25" fill="black"/>
<path d="M38.7876 101.901C38.7876 121.632 22.7567 137.574 2.91655 137.574H0.0595703V118.948H2.91655C12.4398 118.948 19.8997 111.529 19.8997 101.901V49.4955H38.7876V101.901Z" fill="white"/>
<path d="M74.3412 131.576H91.8005V149.886H74.3412C54.501 149.886 38.6289 134.417 38.6289 115.16V105.847C38.6289 86.5894 54.501 71.1204 74.3412 71.1204C94.1813 71.1204 110.212 86.5894 110.212 105.847V118.79H57.8342C59.2627 126.683 66.2464 131.576 74.4999 131.576H74.3412ZM74.3412 89.2728C67.5162 89.2728 61.1673 94.0082 58.7865 100.006H89.8959C87.1976 94.1661 81.4836 89.2728 74.3412 89.2728Z" fill="white"/>
<path d="M128.941 118.79H152.432V137.574H110.053V48.5483H128.941V118.79Z" fill="white"/>
<path d="M172.272 90.6936C172.272 70.9627 188.938 56.1251 208.143 56.1251H211V74.7511H208.143C198.461 74.7511 191.16 81.6963 191.16 90.6936V100.007H211V118.79H191.16V133.786C191.16 153.517 174.495 168.354 155.289 168.354H91.6421V149.728H155.289C164.971 149.728 172.272 142.783 172.272 133.786V118.79H152.432V100.007H172.272V90.6936Z" fill="white"/>
</svg>
